<?xml version="1.0" standalone="no"?><!DOCTYPE svg PUBLIC "-//W3C//DTD SVG 1.1//EN" "http://www.w3.org/Graphics/SVG/1.1/DTD/svg11.dtd"><svg t="1627880616740" class="icon" viewBox="0 0 1024 1024" version="1.1" xmlns="http://www.w3.org/2000/svg" p-id="11584" xmlns:xlink="http://www.w3.org/1999/xlink" width="200" height="200"><defs><style type="text/css"></style></defs><path d="M10.89947 63.864078a47.972416 47.972416 0 1 1 90.923719-30.606401L327.101654 702.424906a47.972416 47.972416 0 0 1-90.93971 30.606401L10.89947 63.864078zM481.508869 904.06896a47.972416 47.972416 0 1 1 0-95.944831h137.137147a47.972416 47.972416 0 0 1 0 95.944831h-137.137147zM961.281001 536.488319l-60.541189 227.613123A159.236439 159.236439 0 0 1 935.85562 864.091947c0 88.317218-71.590835 159.908053-159.908053 159.908053s-159.908053-71.590835-159.908053-159.908053 71.590835-159.908053 159.908053-159.908053c13.848037 0 27.296305 1.758989 40.10494 5.069086L855.693713 560.266647H464.126864a47.972416 47.972416 0 0 1 0-95.944832h417.088174l24.433951-91.899158A47.972416 47.972416 0 0 0 857.852472 320.404567H280.696337a47.972416 47.972416 0 1 1 0-95.944831h577.156135a143.917248 143.917248 0 0 1 142.590011 163.44202l-0.39977 2.958299L967.837231 511.910451V512.294231c0 8.826925-2.398621 17.110162-6.55623 24.194088zM328.205019 1024c-88.317218 0-159.908053-71.590835-159.908053-159.908053s71.590835-159.908053 159.908053-159.908053 159.908053 71.590835 159.908053 159.908053-71.590835 159.908053-159.908053 159.908053z m0-95.944832a63.963221 63.963221 0 1 0 0-127.926442 63.963221 63.963221 0 0 0 0 127.926442z m447.742548 0a63.963221 63.963221 0 1 0 0-127.926442 63.963221 63.963221 0 0 0 0 127.926442z" fill="#d4237a" p-id="11585"></path></svg>