<?xml version="1.0" standalone="no"?><!DOCTYPE svg PUBLIC "-//W3C//DTD SVG 1.1//EN" "http://www.w3.org/Graphics/SVG/1.1/DTD/svg11.dtd"><svg t="1627880458468" class="icon" viewBox="0 0 1077 1024" version="1.1" xmlns="http://www.w3.org/2000/svg" p-id="9672" xmlns:xlink="http://www.w3.org/1999/xlink" width="210.3515625" height="200"><defs><style type="text/css"></style></defs><path d="M459.308912 278.45614c-8.982456 0-16.168421-3.592982-23.354386-8.982456-34.133333-28.74386-55.691228-71.859649-55.691228-116.77193 0-84.435088 68.266667-152.701754 152.701755-152.701754s152.701754 68.266667 152.701754 152.701754c0 35.929825-12.575439 70.063158-34.133333 97.010527-12.575439 16.168421-35.929825 17.964912-50.301755 5.389473-16.168421-12.575439-17.964912-35.929825-5.389473-50.301754 12.575439-14.37193 17.964912-32.336842 17.964912-50.301754 0-46.708772-35.929825-82.638596-80.842105-82.638597s-80.842105 35.929825-80.842106 80.842105c0 23.354386 10.778947 46.708772 28.74386 61.080702 14.37193 12.575439 17.964912 35.929825 5.389474 50.301755-7.185965 8.982456-17.964912 14.37193-26.947369 14.371929z" p-id="9673" fill="#d4237a"></path><path d="M784.473825 1024h-465.291229c-97.010526 0-154.498246-26.947368-172.463157-82.638596v-1.796492l-50.301755-204.8c-5.389474-19.761404 7.185965-39.522807 26.947369-43.115789 19.761404-5.389474 39.522807 7.185965 43.115789 26.947368l48.505263 201.207018c7.185965 19.761404 44.912281 32.336842 104.196491 32.336842h463.494737c86.231579-10.778947 97.010526-50.301754 100.603509-62.877193 7.185965-23.354386 21.557895-82.638596 43.11579-177.852632 3.592982-19.761404 23.354386-32.336842 43.115789-26.947368 19.761404 3.592982 32.336842 23.354386 26.947368 43.115789-21.557895 97.010526-35.929825 156.294737-43.115789 181.445614-12.575439 44.912281-52.098246 102.4-163.480702 114.975439h-5.389473z m-680.870176-379.059649c-16.168421 0-30.540351-10.778947-34.133333-26.947369l-53.894737-220.968421c-5.389474-23.354386-1.796491-46.708772 8.982456-68.266666 12.575439-21.557895 32.336842-37.726316 55.691228-44.912281 23.354386-7.185965 50.301754-3.592982 71.859649 8.982456l149.108772 82.638597 127.550877-138.329825c12.575439-14.37193 35.929825-16.168421 50.301755-1.796491 14.37193 12.575439 16.168421 35.929825 1.796491 50.301754l-145.515789 159.88772c-10.778947 12.575439-28.74386 14.37193-43.11579 7.185964l-172.463158-95.214035c-5.389474-3.592982-10.778947-3.592982-16.168421-1.796491-5.389474 1.796491-10.778947 5.389474-12.575438 10.778948-7.185965 0-7.185965 7.185965-7.185965 12.575438l53.894736 220.968421c5.389474 19.761404-7.185965 39.522807-26.947368 43.11579-1.796491 1.796491-5.389474 1.796491-7.185965 1.796491z m882.077193-3.592983h-7.185965c-19.761404-3.592982-32.336842-23.354386-26.947368-43.115789 7.185965-34.133333 25.150877-111.382456 52.098245-235.340351 1.796491-12.575439-5.389474-23.354386-16.168421-26.947368-5.389474-1.796491-12.575439 0-16.168421 3.592982l-165.277193 109.585965c-14.37193 10.778947-35.929825 7.185965-46.708772-7.185965l-158.091228-188.631579c-12.575439-14.37193-10.778947-37.726316 3.592983-50.301754 14.37193-12.575439 37.726316-10.778947 50.301754 3.592982l138.329825 163.480702 138.329824-91.621053c21.557895-14.37193 46.708772-17.964912 71.859649-14.371929 50.301754 10.778947 82.638596 61.080702 71.85965 111.382456-26.947368 123.957895-44.912281 201.207018-52.098246 235.340351-5.389474 17.964912-21.557895 30.540351-37.726316 30.54035zM387.449263 653.922807c-19.761404 0-35.929825-16.168421-35.929824-35.929825v-39.522807c0-19.761404 16.168421-35.929825 35.929824-35.929824s35.929825 16.168421 35.929825 35.929824v39.522807c0 19.761404-16.168421 35.929825-35.929825 35.929825zM678.480842 653.922807c-19.761404 0-35.929825-16.168421-35.929824-35.929825v-39.522807c0-19.761404 16.168421-35.929825 35.929824-35.929824s35.929825 16.168421 35.929825 35.929824v39.522807c0 19.761404-16.168421 35.929825-35.929825 35.929825z" p-id="9674" fill="#d4237a"></path><path d="M534.761544 828.182456c-35.929825 0-70.063158-16.168421-104.196491-48.505263-14.37193-14.37193-14.37193-35.929825-1.796492-50.301754 14.37193-14.37193 35.929825-14.37193 50.301755-1.796492 21.557895 19.761404 39.522807 30.540351 55.691228 28.74386 14.37193 0 30.540351-8.982456 48.505263-26.947368 14.37193-14.37193 35.929825-14.37193 50.301754-1.796492 14.37193 14.37193 14.37193 35.929825 1.796492 50.301755-30.540351 32.336842-62.877193 48.505263-98.807018 50.301754h-1.796491z" p-id="9675" fill="#d4237a"></path></svg>