<?xml version="1.0" standalone="no"?><!DOCTYPE svg PUBLIC "-//W3C//DTD SVG 1.1//EN" "http://www.w3.org/Graphics/SVG/1.1/DTD/svg11.dtd"><svg t="1627882755801" class="icon" viewBox="0 0 1024 1024" version="1.1" xmlns="http://www.w3.org/2000/svg" p-id="3000" xmlns:xlink="http://www.w3.org/1999/xlink" width="200" height="200"><defs><style type="text/css"></style></defs><path d="M 691.904 96 H 357.12 c -41.856 0 -76.096 31.2 -76.096 69.344 v 693.344 c 0 38.144 34.24 69.344 76.096 69.344 h 334.784 C 733.76 928 768 896.8 768 858.656 V 165.344 C 768 127.2 733.76 96 691.904 96 M 478.88 151.456 h 91.296 c 8.384 0 15.232 6.176 15.232 13.856 c 0 7.648 -6.848 13.856 -15.232 13.856 H 478.88 c -8.416 0 -15.232 -6.208 -15.232 -13.856 c 0.032 -7.648 6.848 -13.856 15.232 -13.856 m 45.664 748.8 c -25.248 0 -45.664 -18.592 -45.664 -41.6 c 0 -23.008 20.416 -41.6 45.664 -41.6 c 25.216 0 45.664 18.592 45.664 41.6 c -0.032 23.008 -20.448 41.6 -45.664 41.6 M 737.6 789.344 H 311.488 V 234.656 H 737.6 v 554.688 Z" fill="#ffffff" p-id="3001"></path></svg>