<?xml version="1.0" standalone="no"?><!DOCTYPE svg PUBLIC "-//W3C//DTD SVG 1.1//EN" "http://www.w3.org/Graphics/SVG/1.1/DTD/svg11.dtd"><svg t="1627096965198" class="icon" viewBox="0 0 1024 1024" version="1.1" xmlns="http://www.w3.org/2000/svg" p-id="3574" xmlns:xlink="http://www.w3.org/1999/xlink" width="200" height="200"><defs><style type="text/css">@font-face { font-family: feedback-iconfont; src: url("//at.alicdn.com/t/font_1031158_1uhr8ri0pk5.eot?#iefix") format("embedded-opentype"), url("//at.alicdn.com/t/font_1031158_1uhr8ri0pk5.woff2") format("woff2"), url("//at.alicdn.com/t/font_1031158_1uhr8ri0pk5.woff") format("woff"), url("//at.alicdn.com/t/font_1031158_1uhr8ri0pk5.ttf") format("truetype"), url("//at.alicdn.com/t/font_1031158_1uhr8ri0pk5.svg#iconfont") format("svg"); }
</style></defs><path d="M697.173333 85.333333H327.253333C182.613333 85.333333 85.333333 186.88 85.333333 337.92v348.586667C85.333333 837.12 182.613333 938.666667 327.253333 938.666667h369.92c144.64 0 241.493333-101.546667 241.493334-252.16V337.92C938.666667 186.88 841.813333 85.333333 697.173333 85.333333z" fill="#d4237a" opacity=".4" p-id="3575"></path><path d="M461.354667 650.581333a37.205333 37.205333 0 0 1-26.410667-10.922666l-101.248-101.248a37.290667 37.290667 0 1 1 52.778667-52.821334l74.88 74.88 176.128-176.128a37.290667 37.290667 0 1 1 52.778666 52.821334l-202.496 202.496a37.205333 37.205333 0 0 1-26.410666 10.922666z" fill="#d4237a" p-id="3576"></path></svg>